HIERARCHY
ROOT Hips
{
	OFFSET -0.001795 -0.223333 0.028219
	CHANNELS 6 Xposition Yposition Zposition Zrotation Yrotation Xrotation 
	JOINT LeftUpLeg
	{
		OFFSET 0.069520 -0.091406 -0.006815
		CHANNELS 3 Zrotation Yrotation Xrotation
		JOINT LeftLeg
		{
			OFFSET 0.034277 -0.375199 -0.004496
			CHANNELS 3 Zrotation Yrotation Xrotation
			JOINT LeftFoot
			{
				OFFSET -0.013596 -0.397961 -0.043693
				CHANNELS 3 Zrotation Yrotation Xrotation
				JOINT LeftToe
				{
					OFFSET 0.026358 -0.055791 0.119288
					CHANNELS 3 Zrotation Yrotation Xrotation
					End Site
					{
						OFFSET 0.000000 0.000000 0.000000
					}
				}
			}
		}
	}
	JOINT RightUpLeg
	{
		OFFSET -0.067670 -0.090522 -0.004320
		CHANNELS 3 Zrotation Yrotation Xrotation
		JOINT RightLeg
		{
			OFFSET -0.038290 -0.382569 -0.008850
			CHANNELS 3 Zrotation Yrotation Xrotation
			JOINT RightFoot
			{
				OFFSET 0.015774 -0.398415 -0.042312
				CHANNELS 3 Zrotation Yrotation Xrotation
				JOINT RightToe
				{
					OFFSET -0.025372 -0.048144 0.123348
					CHANNELS 3 Zrotation Yrotation Xrotation
					End Site
					{
						OFFSET 0.000000 0.000000 0.000000
					}
				}
			}
		}
	}
	JOINT Spine
	{
		OFFSET -0.002533 0.108963 -0.026696
		CHANNELS 3 Zrotation Yrotation Xrotation
		JOINT Spine1
		{
			OFFSET 0.005487 0.135180 0.001092
			CHANNELS 3 Zrotation Yrotation Xrotation
			JOINT Spine2
			{
				OFFSET 0.001457 0.052922 0.025425
				CHANNELS 3 Zrotation Yrotation Xrotation
				JOINT Neck
				{
					OFFSET -0.002778 0.213870 -0.042857
					CHANNELS 3 Zrotation Yrotation Xrotation
					JOINT Head
					{
						OFFSET 0.005152 0.064970 0.051349
						CHANNELS 3 Zrotation Yrotation Xrotation
						End Site
						{
							OFFSET 0.000000 0.000000 0.000000
						}
					}
				}
				JOINT LeftShoulder
				{
					OFFSET 0.078845 0.121749 -0.034090
					CHANNELS 3 Zrotation Yrotation Xrotation
					JOINT LeftArm
					{
						OFFSET 0.090977 0.030469 -0.008868
						CHANNELS 3 Zrotation Yrotation Xrotation
						JOINT LeftForeArm
						{
							OFFSET 0.259612 -0.012772 -0.027456
							CHANNELS 3 Zrotation Yrotation Xrotation
							JOINT LeftHand
							{
								OFFSET 0.249234 0.008986 -0.001171
								CHANNELS 3 Zrotation Yrotation Xrotation
								End Site
								{
									OFFSET 0.000000 0.000000 0.000000
								}
							}
						}
					}
				}
				JOINT RightShoulder
				{
					OFFSET -0.081759 0.118833 -0.038615
					CHANNELS 3 Zrotation Yrotation Xrotation
					JOINT RightArm
					{
						OFFSET -0.096012 0.032551 -0.009143
						CHANNELS 3 Zrotation Yrotation Xrotation
						JOINT RightForeArm
						{
							OFFSET -0.253742 -0.013329 -0.021401
							CHANNELS 3 Zrotation Yrotation Xrotation
							JOINT RightHand
							{
								OFFSET -0.255298 0.007772 -0.005559
								CHANNELS 3 Zrotation Yrotation Xrotation
								End Site
								{
									OFFSET 0.000000 0.000000 0.000000
								}
							}
						}
					}
				}
			}
		}
	}
}
MOTION
Frames: 11
Frame Time: 0.050000
-0.789462 0.928039 2.043365 176.422839 -56.300561 173.838826 -6.585538 3.776529 -18.823834 8.360557 16.846308 30.286953 -4.893373 -3.034344 9.216871 0.000000 0.000000 0.000000 -6.679924 8.117394 10.183281 31.221391 14.437775 52.126333 -2.326861 -17.138824 35.628150 0.000000 0.000000 0.000000 -1.389742 1.745806 14.657559 -7.323479 8.017237 -0.568680 3.789571 -0.239493 3.865874 -2.647927 3.749978 -3.517321 0.000000 0.000000 0.000000 -22.595217 17.852459 3.243217 -50.927865 -6.262004 -3.528064 0.439096 -24.431356 2.332087 0.000000 0.000000 0.000000 11.848464 -4.113718 -17.443195 45.839581 -31.684229 -18.832226 22.742982 37.964908 2.242371 0.000000 0.000000 0.000000 
-0.850271 0.939490 2.026081 178.277682 -59.503863 171.577047 -7.205966 1.322667 -13.297779 7.964700 15.820493 28.733942 -4.848940 -2.304069 8.288876 0.000000 0.000000 0.000000 -6.845076 4.339682 2.013178 37.150611 16.133965 61.188028 -14.889054 -23.862550 32.487154 0.000000 0.000000 0.000000 1.315944 1.188976 14.879417 -9.151107 8.712053 -0.560358 4.511806 -2.141341 3.878053 -2.247065 3.442270 -4.362919 0.000000 0.000000 0.000000 -22.596034 18.562288 2.410479 -51.519385 -6.472608 -3.415339 1.332173 -25.771583 2.607141 0.000000 0.000000 0.000000 11.884630 -5.414844 -17.115138 45.974619 -32.974862 -19.663829 21.763633 35.153453 2.093681 0.000000 0.000000 0.000000 
-0.908500 0.950114 2.009113 -179.506193 -65.157726 168.504357 -8.314693 -0.308711 -6.645092 7.000255 13.264376 25.859549 -4.655506 -1.686424 7.599011 0.000000 0.000000 0.000000 -4.838965 2.068115 -4.875363 33.096217 17.703313 62.548419 -20.112894 -27.501064 22.744190 0.000000 0.000000 0.000000 2.560905 1.024161 15.058101 -6.574866 5.903588 -1.753183 2.528762 -1.214685 6.005914 -1.191012 2.271136 -3.990648 0.000000 0.000000 0.000000 -23.040516 18.675506 2.356223 -50.613658 -7.379372 -3.983003 0.854152 -27.518167 3.134175 0.000000 0.000000 0.000000 12.952767 -7.178070 -18.405600 45.424709 -34.937612 -20.096036 20.936236 32.962811 2.042332 0.000000 0.000000 0.000000 
-0.964360 0.954671 1.991848 -176.074691 -71.185685 163.954627 -9.174961 -0.365129 -0.606663 7.258445 10.787807 24.211075 -4.122543 -1.358600 7.012037 0.000000 0.000000 0.000000 -3.712178 1.624861 -9.362634 21.864332 17.775418 54.840722 -18.536022 -25.269460 15.078357 0.000000 0.000000 0.000000 3.709708 0.773988 14.827381 -6.258952 5.361785 -1.337564 2.854310 -1.722408 6.527092 -0.121779 0.445293 -6.128225 0.000000 0.000000 0.000000 -22.129565 18.396186 1.308620 -52.033000 -7.321889 -3.705328 1.806045 -29.223324 3.489459 0.000000 0.000000 0.000000 12.860653 -9.342021 -17.784932 47.564349 -35.799536 -21.818402 18.823405 31.465794 1.672233 0.000000 0.000000 0.000000 
-1.017464 0.953488 1.974977 -168.556621 -78.569360 156.374625 -9.569173 0.304265 3.551857 8.143644 8.388813 23.359800 -3.012875 -0.595803 5.896609 0.000000 0.000000 0.000000 -3.810908 1.731408 -11.244562 6.991068 13.814236 40.343682 -9.839929 -14.577855 8.109240 0.000000 0.000000 0.000000 3.990416 0.554110 14.277273 -5.593148 4.225042 -1.636950 3.410832 -2.462235 7.305875 -0.670674 0.141742 -7.071706 0.000000 0.000000 0.000000 -22.671755 18.112326 0.992408 -51.743825 -8.835013 -3.523878 0.721193 -30.433318 4.048236 0.000000 0.000000 0.000000 12.969120 -10.783050 -17.349717 48.755694 -36.649852 -22.886570 16.902260 30.121752 1.375805 0.000000 0.000000 0.000000 
-1.067634 0.947095 1.958868 -146.133682 -84.965515 134.255056 -8.677201 0.609535 4.756111 9.310092 8.296035 26.077520 -2.385920 -1.262515 6.115166 0.000000 0.000000 0.000000 -4.826249 1.882746 -11.768541 -3.057799 7.395776 25.508399 0.113357 -3.871983 8.155097 0.000000 0.000000 0.000000 3.698739 0.328060 13.201572 -4.131148 2.837306 -2.207300 2.440509 -0.334667 8.873403 0.256933 -1.753895 -9.501246 0.000000 0.000000 0.000000 -20.418879 16.877196 -0.098424 -54.203586 -8.373135 -2.906233 0.762476 -33.343612 4.810263 0.000000 0.000000 0.000000 13.327777 -13.218926 -17.337221 50.860225 -36.459845 -23.949066 16.737666 28.345704 1.440186 0.000000 0.000000 0.000000 
-1.115901 0.940553 1.943262 -74.600925 -86.038935 63.390938 -7.540330 0.920214 5.905083 11.292845 7.203441 27.351727 -1.121953 -0.348645 7.013973 0.000000 0.000000 0.000000 -4.908726 1.903904 -12.338148 -8.140213 2.762256 12.682388 13.845162 7.188128 15.122053 0.000000 0.000000 0.000000 5.303416 0.025123 12.077454 -3.982687 4.078216 1.384110 1.409148 -0.729551 5.012475 -0.314635 -0.654028 -7.277508 0.000000 0.000000 0.000000 -20.728915 15.999529 -0.779986 -53.825483 -7.601685 -3.313324 -0.644378 -33.961187 5.109580 0.000000 0.000000 0.000000 14.357320 -13.243427 -16.357648 51.997899 -35.726524 -23.471070 14.317304 27.818526 1.207021 0.000000 0.000000 0.000000 
-1.163642 0.931877 1.927009 -23.487351 -79.932935 13.094754 -5.794457 0.969001 6.045127 13.266695 6.615160 30.776541 -1.750009 -1.668449 5.001285 0.000000 0.000000 0.000000 -6.984818 2.035690 -11.750733 -8.610167 1.675192 8.552924 18.885636 12.477512 18.562832 0.000000 0.000000 0.000000 5.015093 -0.078932 11.687723 -3.211822 2.334188 -0.866274 0.435918 0.899361 7.019565 0.933833 -2.134774 -9.175856 0.000000 0.000000 0.000000 -21.915247 13.626041 0.342828 -51.716116 -8.668048 -3.855730 -1.799473 -36.803791 5.768381 0.000000 0.000000 0.000000 16.284111 -13.396803 -16.895792 52.744150 -34.549456 -22.564712 11.508181 25.852442 0.789177 0.000000 0.000000 0.000000 
-1.211751 0.924838 1.909977 -17.028557 -73.222645 6.743676 -3.159586 1.147195 6.456393 16.221067 5.349640 33.509514 -2.325618 -3.355177 5.280338 0.000000 0.000000 0.000000 -5.980944 1.597717 -10.162817 -9.420494 2.538947 11.150505 19.186341 14.468118 18.329711 0.000000 0.000000 0.000000 7.349125 -0.221755 11.314385 -4.323588 3.315175 1.205987 -0.100743 0.845944 4.553260 0.888034 -1.544540 -7.754845 0.000000 0.000000 0.000000 -20.139362 11.502101 -0.081179 -52.933587 -6.117562 -4.312032 -2.893680 -38.244974 6.085305 0.000000 0.000000 0.000000 17.881423 -12.966852 -16.239457 53.574084 -31.909340 -20.839070 9.302333 24.931261 0.568162 0.000000 0.000000 0.000000 
-1.258260 0.924695 1.893284 -13.842416 -67.620352 4.508333 -0.590902 0.910751 4.562845 18.990292 4.903893 38.369746 -4.310964 -7.204238 5.370386 0.000000 0.000000 0.000000 -5.782617 1.376830 -8.953825 -9.013218 3.286968 13.874861 16.091133 13.954679 14.945341 0.000000 0.000000 0.000000 7.583244 -0.330782 9.967357 -3.757220 3.194772 2.324298 -1.364002 2.408627 4.701851 0.889060 -1.691168 -9.238500 0.000000 0.000000 0.000000 -19.706227 10.413286 -0.625940 -54.412616 -5.506785 -4.450059 -2.688034 -39.081657 5.863077 0.000000 0.000000 0.000000 19.517478 -12.569333 -15.896030 52.265521 -27.729236 -17.550678 10.103857 24.262320 0.925525 0.000000 0.000000 0.000000 
-1.301373 0.929327 1.878923 -14.161193 -62.039197 5.934474 2.469654 0.713005 0.446103 20.883210 4.643100 44.360128 -3.882980 -6.513974 8.131617 0.000000 0.000000 0.000000 -3.688231 0.906348 -6.920211 -7.599085 3.092730 14.393312 10.817115 10.706393 9.813295 0.000000 0.000000 0.000000 9.584410 -0.370207 9.093114 -4.613445 3.614062 2.868427 -1.473315 3.637771 3.452960 0.754403 -1.369577 -9.859113 0.000000 0.000000 0.000000 -18.582937 10.337848 -1.804421 -55.183080 -3.089931 -5.182706 -3.059635 -37.917395 5.364107 0.000000 0.000000 0.000000 18.276494 -11.552144 -13.528287 53.748147 -23.497919 -16.076015 9.016719 23.591764 0.934314 0.000000 0.000000 0.000000 
